<?xml version="1.0" encoding="utf-8"?>
<!-- Generator: Adobe Illustrator 23.0.1, SVG Export Plug-In . SVG Version: 6.00 Build 0)  -->
<svg version="1.1" id="Capa_1" xmlns="http://www.w3.org/2000/svg" xmlns:xlink="http://www.w3.org/1999/xlink" x="0px" y="0px"
	 viewBox="0 0 5.7 5.7" style="enable-background:new 0 0 5.7 5.7;" xml:space="preserve">
<style type="text/css">
	.st0{fill:#FAB729;}
	.st1{fill:#FFFFFF;}
</style>
<circle class="st0" cx="2.8" cy="2.8" r="2.7"/>
<path class="st1" d="M4.2,4.1L3.5,3.4c0.2-0.2,0.3-0.5,0.3-0.8c0-0.7-0.5-1.2-1.2-1.2S1.4,2,1.4,2.6S2,3.8,2.6,3.8
	c0.3,0,0.6-0.1,0.8-0.3l0.7,0.7c0,0,0,0,0.1,0c0,0,0,0,0.1,0C4.3,4.2,4.3,4.1,4.2,4.1z M1.6,2.6c0-0.6,0.5-1,1-1c0.6,0,1,0.5,1,1
	s-0.5,1-1,1C2.1,3.7,1.6,3.2,1.6,2.6z"/>
</svg>
