<?xml version="1.0" encoding="utf-8"?>
<!-- Generator: Adobe Illustrator 23.0.1, SVG Export Plug-In . SVG Version: 6.00 Build 0)  -->
<svg version="1.1" id="Layer_1" xmlns="http://www.w3.org/2000/svg" xmlns:xlink="http://www.w3.org/1999/xlink" x="0px" y="0px"
	 viewBox="0 0 28.3 28.3" style="enable-background:new 0 0 28.3 28.3;" xml:space="preserve">
<style type="text/css">
	.st0{fill:#FAB72A;}
	.st1{fill:#FFFFFF;}
</style>
<g>
	
		<image style="overflow:visible;opacity:0.25;" width="149" height="149" xlink:href="2481779.png"  transform="matrix(0.24 0 0 0.24 -2.332 -2.332)">
	</image>
	<g>
		<circle class="st0" cx="14.1" cy="14.1" r="13.5"/>
	</g>
</g>
<g>
	<path class="st1" d="M17.8,9.6l-3.4-3.7c-0.1-0.1-0.1-0.1-0.2-0.1c-0.1,0-0.2,0-0.2,0.1l-3.4,3.7c-0.1,0.1-0.1,0.2,0,0.3
		c0.1,0.1,0.1,0.2,0.3,0.2h2.2v12c0,0.1,0,0.2,0.1,0.2c0.1,0.1,0.1,0.1,0.2,0.1h1.9c0.1,0,0.2,0,0.2-0.1c0.1-0.1,0.1-0.1,0.1-0.2
		v-12h2.2c0.1,0,0.2-0.1,0.3-0.2C17.9,9.9,17.9,9.7,17.8,9.6z"/>
</g>
</svg>
