<?xml version="1.0" encoding="utf-8"?>
<svg version="1.1" id="Layer_1" xmlns="http://www.w3.org/2000/svg" xmlns:xlink="http://www.w3.org/1999/xlink" x="0px" y="0px"
	 width="226.3" height="141.6" viewBox="0 0 226.3 141.6" xml:space="preserve">
<style type="text/css">
	.st0{fill-rule:evenodd;clip-rule:evenodd;fill:#FDB934;}
	.st1{fill:#FDB934;}
</style>
<path class="st0" d="M169.2,0.2l-38.8,21.2l6,1.8l4.4,1.3V29v45.4h28.4V0.2z M115.4,29.6L89,44l5.8,1.7l4.4,1.3v4.5v22.9h29.4V33.5
	L115.4,29.6z M74.1,52.2L55.7,62.2v12.2h31.4V56L74.1,52.2z"/>
<path class="st1" d="M13.1,94.5l-2.6,12.2l-0.4,4.1l-0.6-4.1L6.9,94.5H0v23.2h4.3v-12.4L4,96.6l4.7,21.1h2.6L16,96.6l-0.4,8v13.1H20
	V94.5H13.1z M94.9,94.5v3.4h5.1v19.8h4.3V97.9h5v-3.4H94.9z M134.8,94.5l-8.5,12v-12h-2.5v23.2h2.5v-8l2.5-3.2l6.2,11.2h3.3
	l-7.6-13.5l7.3-9.7H134.8z M194.4,94.5l-5.4,21.3l-5.3-21.3h-2.8l6.6,23.2h3.2l6.6-23.2H194.4z M66,94.5v23.2h4.3v-5.9
	c0-0.6-0.2-3.2-0.5-7.6c-0.1-1.8-0.2-3.1-0.2-4.1l1.9,6.2l4.6,11.4h4.5V94.5h-4.3v5.2c0,1.1,0.1,3.1,0.4,5.9
	c0.3,2.8,0.4,5.1,0.4,6.9l-2.1-6.8l-4.4-11.3L66,94.5z M155.9,114.2c-0.6-0.9-1.1-2.3-1.3-4.2c-0.1-0.9-0.2-2.5-0.2-4.7
	c0-2.6,0.3-4.6,0.9-6c0.8-2,2.1-2.9,3.9-2.9c2,0,3.4,0.9,4.2,2.8c0.7,1.4,1,3.5,1,6.1v0.9c0,2.9-0.2,5-0.5,6.2
	c-0.7,2.5-2.2,3.7-4.5,3.7C157.9,116,156.7,115.4,155.9,114.2 M154.3,96c-1,1.1-1.6,2.6-2,4.5c-0.2,1.2-0.3,2.6-0.3,4.3v0.9
	c0,4,0.5,7.1,1.5,9c1.2,2.3,3.3,3.5,6.2,3.5c2.2,0,3.9-0.7,5.1-2.2c1-1.2,1.6-2.8,2-5c0.2-1.4,0.4-3.3,0.4-5.6
	c0-3.6-0.5-6.3-1.6-8.1c-1.3-2.2-3.3-3.4-6.1-3.4C157.2,94,155.5,94.7,154.3,96 M215.1,114.2c-0.6-0.9-1.1-2.3-1.3-4.2
	c-0.1-0.9-0.2-2.5-0.2-4.7c0-2.6,0.3-4.6,0.9-6c0.8-2,2.1-2.9,3.9-2.9c2,0,3.4,0.9,4.2,2.8c0.7,1.4,1,3.5,1,6.1v0.9
	c0,2.9-0.2,5-0.5,6.2c-0.7,2.5-2.2,3.7-4.5,3.7C217,116,215.8,115.4,215.1,114.2 M213.4,96c-1,1.1-1.6,2.6-2,4.5
	c-0.2,1.2-0.3,2.6-0.3,4.3v0.9c0,4,0.5,7.1,1.5,9c1.2,2.3,3.3,3.5,6.2,3.5c2.2,0,3.9-0.7,5.1-2.2c1-1.2,1.6-2.8,2-5
	c0.2-1.4,0.4-3.3,0.4-5.6c0-3.6-0.5-6.3-1.6-8.1c-1.3-2.2-3.3-3.4-6.1-3.4C216.4,94,214.6,94.7,213.4,96 M39.7,110.2v-8.4
	c0-1.4,0.3-2.5,0.8-3.3c0.5-0.8,1.3-1.2,2.4-1.2c1,0,1.7,0.4,2.3,1.3c0.5,0.9,0.8,2,0.8,3.5v8c0,1.6-0.3,2.8-0.9,3.5
	c-0.5,0.6-1.2,0.9-2.1,0.9C40.8,114.7,39.7,113.2,39.7,110.2 M40.1,94c-1.2,0.4-2.2,1.1-3.1,2.3c-0.6,0.9-1.1,2.3-1.4,4.3
	c-0.2,1.3-0.3,2.7-0.3,4.1v0.5v2.9v0.5c0,3,0.3,5.1,1,6.4c1.1,2.2,3.3,3.2,6.7,3.2c2.5,0,4.3-0.6,5.5-1.9c1.3-1.4,2-4.1,2-8.2v-3.7
	c0-2-0.1-3.6-0.3-4.7c-0.3-1.8-1-3.2-2-4.2c-1.2-1.2-2.9-1.8-5.2-1.8C41.8,93.7,40.8,93.8,40.1,94"/>
<path class="st1" d="M183.6,3.5h1.9c0.5,0,0.8,0.1,1,0.3c0.2,0.2,0.3,0.4,0.3,0.7c0,0.2-0.1,0.4-0.2,0.5c-0.1,0.2-0.3,0.3-0.5,0.4
	c-0.2,0.1-0.5,0.1-0.9,0.1h-1.7V3.5z M182.8,2.9V9h0.8V6.3h0.9c0.2,0,0.4,0,0.4,0c0.1,0,0.2,0.1,0.4,0.2c0.1,0.1,0.3,0.2,0.4,0.4
	c0.2,0.2,0.3,0.5,0.6,0.8l0.8,1.3h1l-1.1-1.7c-0.2-0.3-0.4-0.6-0.7-0.8c-0.1-0.1-0.3-0.2-0.5-0.3c0.6-0.1,1-0.3,1.3-0.6
	c0.3-0.3,0.4-0.7,0.4-1.1c0-0.3-0.1-0.6-0.3-0.9c-0.2-0.3-0.4-0.5-0.7-0.6c-0.3-0.1-0.7-0.2-1.2-0.2H182.8z M185.2,0.6L185.2,0.6
	c1.5,0,2.9,0.6,3.9,1.6c1,1,1.6,2.4,1.6,3.9h0v0v0h0c0,1.5-0.6,2.9-1.6,3.9c-1,1-2.4,1.6-3.9,1.6h0c-1.5,0-2.9-0.6-3.9-1.6
	c-1-1-1.6-2.4-1.6-3.9h0v0h0c0-1.5,0.6-2.9,1.6-3.9C182.3,1.2,183.7,0.6,185.2,0.6L185.2,0.6L185.2,0.6z M185.2,0L185.2,0
	c-1.7,0-3.2,0.7-4.3,1.8c-1.1,1.1-1.8,2.6-1.8,4.3v0c0,1.7,0.7,3.2,1.8,4.3c1.1,1.1,2.6,1.8,4.3,1.8h0c1.7,0,3.2-0.7,4.3-1.8
	c1.1-1.1,1.8-2.6,1.8-4.3h0v0v0h0c0-1.7-0.7-3.2-1.8-4.3C188.4,0.7,186.9,0,185.2,0L185.2,0L185.2,0z"/>
<path class="st1" d="M26.7,127.7v8.3c0,0.9-0.1,1.6-0.4,2c-0.4,0.6-1.1,0.9-2.1,0.9c-1.1,0-1.8-0.3-2.2-1c-0.3-0.5-0.4-1.4-0.4-2.6
	h1.2c0,0.8,0,1.3,0.1,1.5c0.1,0.7,0.5,1,1.2,1c0.4,0,0.8-0.1,1-0.3c0.3-0.3,0.4-0.8,0.4-1.6v-8.3H26.7z M30,131.8
	c-0.3,0.4-0.4,1.1-0.4,2h2.8c0-1-0.1-1.6-0.3-2c-0.2-0.3-0.5-0.5-1-0.5C30.6,131.3,30.3,131.5,30,131.8 M28.8,132.1
	c0.4-1.2,1.2-1.8,2.2-1.8c1,0,1.7,0.4,2.1,1.2c0.3,0.5,0.4,1.4,0.4,2.4v0.8h-4l0,0.4c0,0.8,0.1,1.4,0.2,1.8c0.2,0.6,0.6,1,1.2,1
	c0.6,0,1-0.2,1.2-0.7c0.1-0.3,0.2-0.7,0.2-1.2h1.1c0,0.9-0.2,1.6-0.6,2.1c-0.5,0.6-1.1,0.9-1.9,0.9c-1.1,0-1.8-0.5-2.2-1.6
	c-0.3-0.7-0.4-1.5-0.4-2.6C28.4,133.7,28.6,132.8,28.8,132.1 M36.4,136.9c0.2,0.7,0.6,1.1,1.3,1.1c0.6,0,1-0.2,1.3-0.7
	c0.3-0.5,0.5-1.4,0.5-2.7c0-1.1-0.1-1.9-0.3-2.4c-0.3-0.7-0.7-1-1.4-1c-0.6,0-1.1,0.5-1.3,1.4c-0.1,0.6-0.2,1.3-0.2,2.2
	C36.2,135.8,36.3,136.5,36.4,136.9 M40.6,127.6v11.1h-1.1v-1.1c-0.2,0.4-0.5,0.7-0.7,0.9c-0.3,0.3-0.7,0.4-1.2,0.4
	c-0.9,0-1.6-0.4-2-1.3c-0.3-0.6-0.5-1.5-0.5-2.5v-0.4c0-1.2,0.1-2.2,0.4-2.9c0.4-1.1,1.1-1.6,2.2-1.6c0.3,0,0.7,0.1,1,0.3
	c0.3,0.2,0.6,0.5,0.8,0.8v-3.8H40.6z M44.3,131c-0.2,0.2-0.3,0.3-0.4,0.4v-0.9h-1.2v8.2H44v-5.7c0-0.6,0.2-1,0.5-1.3
	c0.3-0.3,0.7-0.5,1.2-0.5c0.5,0,0.9,0.2,1,0.5c0.1,0.2,0.2,0.7,0.2,1.3v5.6h1.2v-6.2c0-0.8-0.2-1.4-0.5-1.7
	c-0.4-0.4-0.9-0.5-1.6-0.5C45.4,130.3,44.9,130.6,44.3,131 M50.2,130.5h1.1v8.2h-1.1V130.5z M50.2,128h1.1v1.5h-1.1V128z
	 M53.5,131.7c0.4-0.9,1.2-1.4,2.4-1.4c0.7,0,1.3,0.2,1.7,0.7c0.5,0.5,0.7,1.2,0.7,2.1h-1.1c0-0.5-0.1-0.9-0.3-1.2
	c-0.2-0.4-0.6-0.6-1.1-0.6c-0.7,0-1.1,0.4-1.4,1.2c-0.2,0.5-0.2,1.3-0.2,2.2c0,0.9,0.1,1.6,0.2,2.1c0.2,0.8,0.7,1.1,1.4,1.1
	c0.5,0,0.8-0.2,1-0.5c0.2-0.4,0.4-0.9,0.4-1.6h1.1c0,0.7-0.1,1.4-0.4,1.9c-0.4,0.8-1.1,1.2-2.1,1.2c-1,0-1.8-0.4-2.2-1.2
	c-0.4-0.7-0.6-1.7-0.6-3C53.1,133.4,53.2,132.4,53.5,131.7 M57.9,127.7l-1.5,2.1h-1.4l-1.5-2.1h1.2l0.9,1.4l1-1.4H57.9z M60,127.6
	v11.1h1.2v-2.9l0.9-1.2l2,4.1l1.4,0l-2.6-5l2.5-3.2H64l-2.9,3.8v-6.7H60z M70.6,130.5l-1.9,7.2l-1.9-7.2h-1.2l2.6,8.4
	c-0.1,0.6-0.3,1-0.6,1.3c-0.2,0.3-0.5,0.4-0.9,0.4c-0.3,0-0.6-0.1-0.9-0.2v1.1c0.1,0,0.2,0.1,0.4,0.1c0.1,0,0.3,0,0.4,0
	c0.3,0,0.6,0,0.8-0.1c0.2-0.1,0.4-0.2,0.6-0.3c0.3-0.2,0.5-0.7,0.8-1.3c0-0.1,0.3-0.8,0.7-2.2l2.2-7.2H70.6z M80.9,130.5l-1.9,7.2
	l-1.9-7.2h-1.2l2.5,8.2h1.3l2.5-8.2H80.9z M93.1,130.7c-0.4,0.2-0.7,0.6-0.9,1c-0.2-0.5-0.5-0.8-0.8-1c-0.3-0.2-0.7-0.3-1.1-0.3
	c-0.4,0-0.7,0.1-1.1,0.3c-0.4,0.2-0.7,0.5-0.9,1v-1.1h-1.1v8.2h1.1v-5.6c0-0.7,0.2-1.2,0.6-1.5c0.3-0.2,0.7-0.4,1.1-0.4
	c0.5,0,0.8,0.1,1,0.4c0.2,0.2,0.2,0.7,0.2,1.2v5.8h1.2v-5.6c0-0.6,0.2-1.1,0.5-1.4c0.3-0.3,0.7-0.4,1.2-0.4c0.5,0,0.9,0.2,1,0.5
	c0.1,0.2,0.2,0.5,0.2,0.8v6.1h1.2v-6.2c0-0.5-0.1-1-0.3-1.3c-0.3-0.6-0.9-0.9-1.7-0.9C93.9,130.3,93.5,130.4,93.1,130.7 M99.7,136.8
	c0.3,0.8,0.8,1.2,1.6,1.2c0.7,0,1.2-0.4,1.4-1.2c0.1-0.5,0.2-1.2,0.2-2.1c0-1-0.1-1.7-0.2-2.2c-0.3-0.8-0.8-1.2-1.5-1.2
	c-0.7,0-1.2,0.4-1.5,1.2c-0.2,0.5-0.2,1.2-0.2,2C99.4,135.6,99.5,136.3,99.7,136.8 M98.8,131.6c0.5-0.8,1.2-1.2,2.3-1.2
	c1.1,0,1.9,0.4,2.3,1.1c0.4,0.7,0.7,1.7,0.7,3.1c0,1.4-0.2,2.4-0.6,3.2c-0.5,0.8-1.2,1.3-2.2,1.3c-1.1,0-1.9-0.4-2.4-1.3
	c-0.4-0.7-0.6-1.8-0.6-3.2C98.2,133.3,98.4,132.3,98.8,131.6 M107.4,131c-0.2,0.2-0.3,0.3-0.4,0.4v-0.9h-1.2v8.2h1.2v-5.7
	c0-0.6,0.2-1,0.5-1.3c0.3-0.3,0.7-0.5,1.2-0.5c0.5,0,0.9,0.2,1,0.5c0.1,0.2,0.2,0.7,0.2,1.3v5.6h1.2v-6.2c0-0.8-0.2-1.4-0.5-1.7
	c-0.4-0.4-0.9-0.5-1.6-0.5C108.5,130.3,108,130.6,107.4,131 M113.5,128.3v2.2h-1.1v1h1.1v5.6c0,0.6,0.1,1,0.2,1.2
	c0.2,0.3,0.5,0.4,1,0.4h1.3v-1h-0.8c-0.2,0-0.4,0-0.5-0.1c-0.1-0.1-0.1-0.2-0.1-0.4v-5.7h1.4v-1h-1.4v-2.2H113.5z M118.5,136.8
	c0.3,0.8,0.8,1.2,1.6,1.2c0.7,0,1.2-0.4,1.4-1.2c0.1-0.5,0.2-1.2,0.2-2.1c0-1-0.1-1.7-0.2-2.2c-0.3-0.8-0.8-1.2-1.5-1.2
	c-0.7,0-1.2,0.4-1.5,1.2c-0.2,0.5-0.2,1.2-0.2,2C118.3,135.6,118.4,136.3,118.5,136.8 M117.7,131.6c0.5-0.8,1.2-1.2,2.3-1.2
	c1.1,0,1.9,0.4,2.3,1.1c0.4,0.7,0.7,1.7,0.7,3.1c0,1.4-0.2,2.4-0.6,3.2c-0.5,0.8-1.2,1.3-2.2,1.3c-1.1,0-1.9-0.4-2.4-1.3
	c-0.4-0.7-0.6-1.8-0.6-3.2C117.1,133.3,117.3,132.3,117.7,131.6 M128.9,130.5l-1.9,7.2l-1.9-7.2h-1.2l2.5,8.2h1.3l2.5-8.2H128.9z
	 M132.2,137.7c0.2,0.2,0.5,0.3,0.8,0.3c0.4,0,0.7-0.1,1-0.4c0.3-0.3,0.5-0.7,0.5-1.1v-2.1c-0.8,0.4-1.3,0.6-1.6,0.8
	c-0.6,0.3-1,0.9-1,1.6C131.9,137.1,132,137.5,132.2,137.7 M131.7,130.9c0.4-0.4,1-0.6,1.7-0.6c1,0,1.7,0.3,2,0.8
	c0.2,0.3,0.3,0.9,0.3,1.6v4.4c0,0.3,0,0.5,0.1,0.6c0,0.1,0.2,0.1,0.3,0.2c0,0,0.1,0,0.2,0h0.2v0.8l-0.7,0.1c-0.4,0-0.7-0.1-0.8-0.3
	c-0.2-0.2-0.2-0.5-0.2-0.9c-0.2,0.5-0.5,0.9-0.9,1.1c-0.3,0.2-0.7,0.3-1.1,0.3c-0.8,0-1.3-0.2-1.6-0.7c-0.2-0.4-0.4-0.9-0.4-1.5
	c0-0.7,0.1-1.2,0.4-1.6c0.2-0.3,0.5-0.6,1-0.7l1.8-0.7c0.2-0.1,0.3-0.1,0.5-0.2c0.2-0.1,0.3-0.2,0.3-0.4v-0.9c0-0.3-0.1-0.5-0.3-0.7
	c-0.2-0.2-0.5-0.3-1-0.3c-0.5,0-0.9,0.1-1,0.3c-0.2,0.2-0.3,0.6-0.3,1.1h-1.1C131.1,131.9,131.3,131.3,131.7,130.9 M139.4,131
	c-0.2,0.2-0.3,0.3-0.4,0.4v-0.9h-1.2v8.2h1.2v-5.7c0-0.6,0.2-1,0.5-1.3c0.3-0.3,0.7-0.5,1.2-0.5c0.5,0,0.9,0.2,1,0.5
	c0.1,0.2,0.2,0.7,0.2,1.3v5.6h1.2v-6.2c0-0.8-0.2-1.4-0.5-1.7c-0.4-0.4-0.9-0.5-1.6-0.5C140.5,130.3,140,130.6,139.4,131
	 M150.5,130.5l-2.2,7.2c-0.4,1.3-0.7,2.1-0.7,2.2c-0.2,0.6-0.5,1.1-0.8,1.3c-0.2,0.1-0.4,0.2-0.6,0.3c-0.2,0.1-0.5,0.1-0.8,0.1
	c-0.2,0-0.3,0-0.4,0c-0.1,0-0.2,0-0.4-0.1v-1.1c0.3,0.1,0.6,0.2,0.9,0.2c0.3,0,0.6-0.1,0.9-0.4c0.2-0.3,0.4-0.7,0.6-1.3l-2.6-8.4
	h1.2l1.9,7.2l1.9-7.2H150.5z M149.8,127.7l-1.9,2.1h-1l1.3-2.1H149.8z M151.9,131.7c-0.3,0.7-0.5,1.7-0.5,3c0,1.4,0.2,2.4,0.6,3
	c0.5,0.8,1.2,1.2,2.2,1.2c1,0,1.6-0.4,2.1-1.2c0.3-0.5,0.4-1.2,0.4-1.9h-1.1c0,0.7-0.1,1.2-0.4,1.6c-0.2,0.4-0.6,0.5-1,0.5
	c-0.7,0-1.2-0.4-1.4-1.1c-0.1-0.4-0.2-1.1-0.2-2.1c0-1,0.1-1.7,0.2-2.2c0.2-0.8,0.7-1.2,1.4-1.2c0.5,0,0.9,0.2,1.1,0.6
	c0.2,0.3,0.3,0.7,0.3,1.2h1.1c0-0.9-0.2-1.6-0.7-2.1c-0.4-0.5-1-0.7-1.7-0.7C153.1,130.3,152.3,130.8,151.9,131.7 M158.4,127.6v11.1
	h1.2v-5.6c0-0.6,0.2-1.1,0.5-1.4c0.3-0.3,0.7-0.5,1.2-0.5c0.5,0,0.8,0.2,0.9,0.5c0.1,0.3,0.2,0.7,0.2,1.3v5.7h1.2v-6.2
	c0-0.8-0.2-1.4-0.6-1.7c-0.3-0.3-0.8-0.5-1.3-0.5c-0.4,0-0.9,0.1-1.3,0.3c-0.4,0.2-0.7,0.5-0.9,0.8v-3.8H158.4z M169.5,127.6v11.1
	h1.2v-5.6c0-0.6,0.2-1.1,0.5-1.4c0.3-0.3,0.7-0.5,1.2-0.5c0.5,0,0.8,0.2,0.9,0.5c0.1,0.3,0.2,0.7,0.2,1.3v5.7h1.2v-6.2
	c0-0.8-0.2-1.4-0.6-1.7c-0.3-0.3-0.8-0.5-1.3-0.5c-0.4,0-0.9,0.1-1.3,0.3c-0.4,0.2-0.7,0.5-0.9,0.8v-3.8H169.5z M177.7,137.7
	c0.2,0.2,0.5,0.3,0.8,0.3c0.4,0,0.7-0.1,1-0.4c0.3-0.3,0.5-0.7,0.5-1.1v-2.1c-0.8,0.4-1.3,0.6-1.6,0.8c-0.7,0.3-1,0.9-1,1.6
	C177.4,137.1,177.5,137.5,177.7,137.7 M177.2,130.9c0.4-0.4,1-0.6,1.7-0.6c1,0,1.7,0.3,2,0.8c0.2,0.3,0.3,0.9,0.3,1.6v4.4
	c0,0.3,0,0.5,0.1,0.6c0,0.1,0.2,0.1,0.3,0.2c0.1,0,0.1,0,0.2,0h0.2v0.8l-0.7,0.1c-0.4,0-0.6-0.1-0.8-0.3c-0.2-0.2-0.2-0.5-0.2-0.9
	c-0.2,0.5-0.5,0.9-0.9,1.1c-0.3,0.2-0.7,0.3-1.1,0.3c-0.8,0-1.3-0.2-1.6-0.7c-0.2-0.4-0.4-0.9-0.4-1.5c0-0.7,0.1-1.2,0.4-1.6
	c0.2-0.3,0.5-0.6,1-0.7l1.8-0.7c0.2-0.1,0.3-0.1,0.5-0.2c0.2-0.1,0.2-0.2,0.2-0.4v-0.9c0-0.3-0.1-0.5-0.2-0.7
	c-0.2-0.2-0.5-0.3-1-0.3c-0.5,0-0.9,0.1-1,0.3c-0.2,0.2-0.2,0.6-0.2,1.1h-1.1C176.6,131.9,176.8,131.3,177.2,130.9 M183.4,138.8h1.2
	v-11.1h-1.2V138.8z M187.6,137.7c0.2,0.2,0.5,0.3,0.8,0.3c0.4,0,0.7-0.1,1-0.4c0.3-0.3,0.5-0.7,0.5-1.1v-2.1
	c-0.8,0.4-1.3,0.6-1.6,0.8c-0.6,0.3-1,0.9-1,1.6C187.3,137.1,187.4,137.5,187.6,137.7 M187,130.9c0.4-0.4,1-0.6,1.7-0.6
	c1,0,1.7,0.3,2,0.8c0.2,0.3,0.3,0.9,0.3,1.6v4.4c0,0.3,0,0.5,0.1,0.6c0,0.1,0.2,0.1,0.3,0.2c0,0,0.1,0,0.2,0h0.2v0.8l-0.7,0.1
	c-0.4,0-0.6-0.1-0.8-0.3c-0.2-0.2-0.2-0.5-0.2-0.9c-0.2,0.5-0.5,0.9-0.9,1.1c-0.3,0.2-0.7,0.3-1.1,0.3c-0.8,0-1.3-0.2-1.6-0.7
	c-0.2-0.4-0.4-0.9-0.4-1.5c0-0.7,0.1-1.2,0.4-1.6c0.2-0.3,0.5-0.6,1-0.7l1.8-0.7c0.2-0.1,0.3-0.1,0.5-0.2c0.2-0.1,0.3-0.2,0.3-0.4
	v-0.9c0-0.3-0.1-0.5-0.3-0.7c-0.2-0.2-0.5-0.3-1-0.3c-0.5,0-0.9,0.1-1,0.3c-0.2,0.2-0.3,0.6-0.3,1.1h-1.1
	C186.4,131.9,186.6,131.3,187,130.9 M191.1,127.7l-1.9,2.1h-1l1.3-2.1H191.1z M193.3,131.7c-0.3,0.7-0.5,1.7-0.5,3
	c0,1.4,0.2,2.4,0.6,3c0.5,0.8,1.2,1.2,2.2,1.2c1,0,1.6-0.4,2.1-1.2c0.3-0.5,0.4-1.2,0.4-1.9H197c0,0.7-0.1,1.2-0.4,1.6
	c-0.2,0.4-0.6,0.5-1,0.5c-0.7,0-1.2-0.4-1.4-1.1c-0.1-0.4-0.2-1.1-0.2-2.1c0-1,0.1-1.7,0.2-2.2c0.2-0.8,0.7-1.2,1.4-1.2
	c0.5,0,0.9,0.2,1.1,0.6c0.2,0.3,0.3,0.7,0.3,1.2h1.1c0-0.9-0.2-1.6-0.7-2.1c-0.4-0.5-1-0.7-1.7-0.7
	C194.5,130.3,193.7,130.8,193.3,131.7 M199.8,127.6v11.1h1.2v-5.6c0-0.6,0.2-1.1,0.5-1.4c0.3-0.3,0.7-0.5,1.2-0.5
	c0.5,0,0.8,0.2,0.9,0.5c0.1,0.3,0.2,0.7,0.2,1.3v5.7h1.2v-6.2c0-0.8-0.2-1.4-0.6-1.7c-0.3-0.3-0.8-0.5-1.3-0.5
	c-0.4,0-0.9,0.1-1.3,0.3c-0.4,0.2-0.7,0.5-0.9,0.8v-3.8H199.8z"/>
</svg>
